<svg width="32" height="32" viewBox="0 0 32 32" fill="none" xmlns="http://www.w3.org/2000/svg">
<rect width="32" height="32" rx="4" fill="#54A0FF"/>
<path d="M7.15137 15.552C7.15137 13.888 7.51138 12.408 8.23138 11.112C8.95138 9.8 9.95138 8.784 11.2314 8.064C12.5274 7.328 13.9914 6.96 15.6234 6.96C17.6234 6.96 19.3354 7.488 20.7594 8.544C22.1834 9.6 23.1354 11.04 23.6154 12.864H19.1034C18.7674 12.16 18.2874 11.624 17.6634 11.256C17.0554 10.888 16.3594 10.704 15.5754 10.704C14.3114 10.704 13.2874 11.144 12.5034 12.024C11.7194 12.904 11.3274 14.08 11.3274 15.552C11.3274 17.024 11.7194 18.2 12.5034 19.08C13.2874 19.96 14.3114 20.4 15.5754 20.4C16.3594 20.4 17.0554 20.216 17.6634 19.848C18.2874 19.48 18.7674 18.944 19.1034 18.24H23.6154C23.1354 20.064 22.1834 21.504 20.7594 22.56C19.3354 23.6 17.6234 24.12 15.6234 24.12C13.9914 24.12 12.5274 23.76 11.2314 23.04C9.95138 22.304 8.95138 21.288 8.23138 19.992C7.51138 18.696 7.15137 17.216 7.15137 15.552Z" fill="black"/>
<path d="M7.15137 15.552C7.15137 13.888 7.51138 12.408 8.23138 11.112C8.95138 9.8 9.95138 8.784 11.2314 8.064C12.5274 7.328 13.9914 6.96 15.6234 6.96C17.6234 6.96 19.3354 7.488 20.7594 8.544C22.1834 9.6 23.1354 11.04 23.6154 12.864H19.1034C18.7674 12.16 18.2874 11.624 17.6634 11.256C17.0554 10.888 16.3594 10.704 15.5754 10.704C14.3114 10.704 13.2874 11.144 12.5034 12.024C11.7194 12.904 11.3274 14.08 11.3274 15.552C11.3274 17.024 11.7194 18.2 12.5034 19.08C13.2874 19.96 14.3114 20.4 15.5754 20.4C16.3594 20.4 17.0554 20.216 17.6634 19.848C18.2874 19.48 18.7674 18.944 19.1034 18.24H23.6154C23.1354 20.064 22.1834 21.504 20.7594 22.56C19.3354 23.6 17.6234 24.12 15.6234 24.12C13.9914 24.12 12.5274 23.76 11.2314 23.04C9.95138 22.304 8.95138 21.288 8.23138 19.992C7.51138 18.696 7.15137 17.216 7.15137 15.552Z" fill="white"/>
</svg>
