<svg width="105" height="25" viewBox="0 0 105 25" fill="none" xmlns="http://www.w3.org/2000/svg">
<path d="M0.672 11.304C0.672 9.912 0.952 8.696 1.512 7.656C2.088 6.616 2.88 5.816 3.888 5.256C4.912 4.696 6.08 4.416 7.392 4.416C9.072 4.416 10.472 4.856 11.592 5.736C12.728 6.616 13.472 7.856 13.824 9.456H9.456C9.088 8.432 8.376 7.92 7.32 7.92C6.568 7.92 5.968 8.216 5.52 8.808C5.072 9.384 4.848 10.216 4.848 11.304C4.848 12.392 5.072 13.232 5.52 13.824C5.968 14.4 6.568 14.688 7.32 14.688C8.376 14.688 9.088 14.176 9.456 13.152H13.824C13.472 14.72 12.728 15.952 11.592 16.848C10.456 17.744 9.056 18.192 7.392 18.192C6.08 18.192 4.912 17.912 3.888 17.352C2.88 16.792 2.088 15.992 1.512 14.952C0.952 13.912 0.672 12.696 0.672 11.304ZM24.2513 4.464C25.7873 4.464 27.0193 4.976 27.9473 6C28.8753 7.008 29.3393 8.4 29.3393 10.176V18H25.2593V10.728C25.2593 9.832 25.0273 9.136 24.5633 8.64C24.0993 8.144 23.4753 7.896 22.6913 7.896C21.9073 7.896 21.2833 8.144 20.8193 8.64C20.3553 9.136 20.1233 9.832 20.1233 10.728V18H16.0193V0.24H20.1233V6.408C20.5393 5.816 21.1073 5.344 21.8273 4.992C22.5473 4.64 23.3553 4.464 24.2513 4.464ZM31.3751 11.28C31.3751 9.904 31.6311 8.696 32.1431 7.656C32.6711 6.616 33.3831 5.816 34.2791 5.256C35.1751 4.696 36.1751 4.416 37.2791 4.416C38.2231 4.416 39.0471 4.608 39.7511 4.992C40.4711 5.376 41.0231 5.88 41.4071 6.504V4.608H45.5111V18H41.4071V16.104C41.0071 16.728 40.4471 17.232 39.7271 17.616C39.0231 18 38.1991 18.192 37.2551 18.192C36.1671 18.192 35.1751 17.912 34.2791 17.352C33.3831 16.776 32.6711 15.968 32.1431 14.928C31.6311 13.872 31.3751 12.656 31.3751 11.28ZM41.4071 11.304C41.4071 10.28 41.1191 9.472 40.5431 8.88C39.9831 8.288 39.2951 7.992 38.4791 7.992C37.6631 7.992 36.9671 8.288 36.3911 8.88C35.8311 9.456 35.5511 10.256 35.5511 11.28C35.5511 12.304 35.8311 13.12 36.3911 13.728C36.9671 14.32 37.6631 14.616 38.4791 14.616C39.2951 14.616 39.9831 14.32 40.5431 13.728C41.1191 13.136 41.4071 12.328 41.4071 11.304ZM55.9442 14.52V18H53.8562C52.3682 18 51.2082 17.64 50.3762 16.92C49.5442 16.184 49.1282 14.992 49.1282 13.344V8.016H47.4962V4.608H49.1282V1.344H53.2322V4.608H55.9202V8.016H53.2322V13.392C53.2322 13.792 53.3282 14.08 53.5202 14.256C53.7122 14.432 54.0322 14.52 54.4802 14.52H55.9442ZM57.8942 11.424C57.8942 10.08 58.1582 8.904 58.6862 7.896C59.2302 6.872 59.9742 6.088 60.9182 5.544C61.8782 4.984 62.9582 4.704 64.1582 4.704C65.4062 4.704 66.4782 4.992 67.3742 5.568C68.2862 6.144 68.9422 6.88 69.3422 7.776V4.896H71.0222V18H69.3422V15.096C68.9262 15.992 68.2622 16.736 67.3502 17.328C66.4542 17.904 65.3822 18.192 64.1342 18.192C62.9502 18.192 61.8782 17.912 60.9182 17.352C59.9742 16.792 59.2302 16 58.6862 14.976C58.1582 13.952 57.8942 12.768 57.8942 11.424ZM69.3422 11.448C69.3422 10.392 69.1262 9.464 68.6942 8.664C68.2622 7.864 67.6702 7.248 66.9182 6.816C66.1822 6.384 65.3662 6.168 64.4702 6.168C63.5422 6.168 62.7102 6.376 61.9742 6.792C61.2382 7.208 60.6542 7.816 60.2222 8.616C59.8062 9.4 59.5982 10.336 59.5982 11.424C59.5982 12.496 59.8062 13.44 60.2222 14.256C60.6542 15.056 61.2382 15.672 61.9742 16.104C62.7102 16.52 63.5422 16.728 64.4702 16.728C65.3662 16.728 66.1822 16.512 66.9182 16.08C67.6702 15.648 68.2622 15.032 68.6942 14.232C69.1262 13.432 69.3422 12.504 69.3422 11.448ZM76.5135 7.776C76.9295 6.896 77.5855 6.168 78.4815 5.592C79.3935 5 80.4735 4.704 81.7215 4.704C82.9055 4.704 83.9695 4.984 84.9135 5.544C85.8735 6.088 86.6175 6.872 87.1455 7.896C87.6895 8.904 87.9615 10.08 87.9615 11.424C87.9615 12.768 87.6895 13.952 87.1455 14.976C86.6175 16 85.8735 16.792 84.9135 17.352C83.9695 17.912 82.9055 18.192 81.7215 18.192C80.4895 18.192 79.4175 17.904 78.5055 17.328C77.5935 16.736 76.9295 16 76.5135 15.12V24.192H74.8575V4.896H76.5135V7.776ZM86.2575 11.424C86.2575 10.336 86.0415 9.4 85.6095 8.616C85.1935 7.816 84.6175 7.208 83.8815 6.792C83.1455 6.376 82.3135 6.168 81.3855 6.168C80.4895 6.168 79.6655 6.384 78.9135 6.816C78.1775 7.248 77.5935 7.864 77.1615 8.664C76.7295 9.464 76.5135 10.392 76.5135 11.448C76.5135 12.504 76.7295 13.432 77.1615 14.232C77.5935 15.032 78.1775 15.648 78.9135 16.08C79.6655 16.512 80.4895 16.728 81.3855 16.728C82.3135 16.728 83.1455 16.52 83.8815 16.104C84.6175 15.672 85.1935 15.056 85.6095 14.256C86.0415 13.44 86.2575 12.496 86.2575 11.424ZM92.7088 7.776C93.1248 6.896 93.7808 6.168 94.6768 5.592C95.5888 5 96.6688 4.704 97.9168 4.704C99.1008 4.704 100.165 4.984 101.109 5.544C102.069 6.088 102.813 6.872 103.341 7.896C103.885 8.904 104.157 10.08 104.157 11.424C104.157 12.768 103.885 13.952 103.341 14.976C102.813 16 102.069 16.792 101.109 17.352C100.165 17.912 99.1008 18.192 97.9168 18.192C96.6848 18.192 95.6128 17.904 94.7008 17.328C93.7888 16.736 93.1248 16 92.7088 15.12V24.192H91.0528V4.896H92.7088V7.776ZM102.453 11.424C102.453 10.336 102.237 9.4 101.805 8.616C101.389 7.816 100.813 7.208 100.077 6.792C99.3408 6.376 98.5088 6.168 97.5808 6.168C96.6848 6.168 95.8608 6.384 95.1088 6.816C94.3728 7.248 93.7888 7.864 93.3568 8.664C92.9248 9.464 92.7088 10.392 92.7088 11.448C92.7088 12.504 92.9248 13.432 93.3568 14.232C93.7888 15.032 94.3728 15.648 95.1088 16.08C95.8608 16.512 96.6848 16.728 97.5808 16.728C98.5088 16.728 99.3408 16.52 100.077 16.104C100.813 15.672 101.389 15.056 101.805 14.256C102.237 13.44 102.453 12.496 102.453 11.424Z" fill="white"/>
</svg>
