<svg width="20" height="20" viewBox="0 0 20 20" fill="none" xmlns="http://www.w3.org/2000/svg">
<g clip-path="url(#clip0)">
<path d="M19.9713 7.70527C19.9024 7.49313 19.7191 7.33852 19.4984 7.30649L13.2983 6.40551L10.5255 0.787294C10.4268 0.587294 10.2231 0.460693 10.0001 0.460693C9.77705 0.460693 9.57338 0.587294 9.47467 0.787294L6.70171 6.40551L0.501734 7.30649C0.28107 7.33852 0.0976727 7.49313 0.0287667 7.70523C-0.0401783 7.91738 0.0173214 8.15023 0.177047 8.3059L4.66328 12.6791L3.60438 18.8542C3.56664 19.074 3.65703 19.2961 3.83746 19.4273C3.93953 19.5014 4.06043 19.5391 4.18191 19.5391C4.2752 19.5391 4.36879 19.5169 4.45449 19.4718L10.0001 16.5563L15.5454 19.4718C15.7428 19.5756 15.982 19.5583 16.1625 19.4272C16.3429 19.2961 16.4333 19.0739 16.3956 18.8541L15.3364 12.6791L19.8231 8.30586C19.9828 8.15023 20.0403 7.91738 19.9713 7.70527Z" fill="#FF9F43"/>
</g>
<defs>
<clipPath id="clip0">
<rect width="20" height="20" fill="white"/>
</clipPath>
</defs>
</svg>
